<svg xmlns="http://www.w3.org/2000/svg" viewBox="0 0 464.56 229.06"><defs><style>.cls-1{isolation:isolate;}.cls-2{fill:#b1c3cd;}.cls-3{fill:#667273;}.cls-11,.cls-4{fill:#606060;}.cls-5{fill:#ef4736;}.cls-6,.cls-9{fill:none;stroke-linecap:round;}.cls-6{stroke:#ffda04;stroke-miterlimit:10;}.cls-7,.cls-8{fill:#ffda04;}.cls-7{opacity:0.4;}.cls-9{stroke:#8e9a9b;stroke-linejoin:round;}.cls-10,.cls-12{fill:#fffbf2;}.cls-11,.cls-12{opacity:0.3;}.cls-11{mix-blend-mode:multiply;}.cls-12{mix-blend-mode:screen;}.cls-13{fill:#f0c600;}.cls-14{font-size:37.03px;fill:#3a4950;font-family:Montserrat-SemiBold, Montserrat;font-weight:600;letter-spacing:0.1em;}.cls-15{fill:#474745;}.cls-16{fill:#fff;}.cls-17{fill:#e14136;}</style></defs><g class="cls-1"><g id="Layer_2" data-name="Layer 2"><g id="Layer_1-2" data-name="Layer 1"><ellipse class="cls-2" cx="232.28" cy="215.36" rx="232.28" ry="13.69"/><path class="cls-3" d="M155.28,41.78v5.74H131.91V41.78a2.09,2.09,0,0,1,0-.25,6.35,6.35,0,0,1,6.35-6.11h10.66a6.39,6.39,0,0,1,4.88,2.29A6.32,6.32,0,0,1,155.28,41.78Z"/><rect class="cls-3" x="136.45" y="46.72" width="14.3" height="157.02"/><rect class="cls-3" x="121.62" y="203.67" width="43.94" height="11.82"/><path class="cls-4" d="M165.57,203.67v11.82h-22.1a8.47,8.47,0,0,0-8.36-7.11H121.62v-4.71Z"/><path class="cls-4" d="M155.28,41.78v5.74h-4.54V203.74h-7.16a12.84,12.84,0,0,0-2.21-6.89,13.1,13.1,0,0,0-4.61-4.17c-.11-.06-.2-.12-.31-.17V179.25h7.15V135a13.23,13.23,0,0,0-2.27-7.44,13.08,13.08,0,0,0-4.88-4.34V110.09h7.15V54.27a12.65,12.65,0,0,0-1.94-6.75,5.11,5.11,0,0,0-.54-.8,10.35,10.35,0,0,0-1.3-1.52,12.91,12.91,0,0,0-4-2.73,12.57,12.57,0,0,0-3.85-.94,6.35,6.35,0,0,1,6.35-6.11h10.66a6.39,6.39,0,0,1,4.88,2.29A6.32,6.32,0,0,1,155.28,41.78Z"/><circle class="cls-5" cx="143.76" cy="18.11" r="18.11"/><path class="cls-6" d="M157.16,25.62a15.49,15.49,0,0,1-4.82,5.23"/><path class="cls-6" d="M147.71,33a15.57,15.57,0,0,1-3.37.5"/><path class="cls-6" d="M131.19,9.27a15,15,0,0,1,1.42-1.74"/><path class="cls-6" d="M135.5,5.15a15.35,15.35,0,0,1,15.85-.4"/><circle class="cls-7" cx="143.76" cy="18.11" r="12.29" transform="translate(22.37 97.22) rotate(-40.27)"/><circle class="cls-8" cx="143.76" cy="18.11" r="8.07"/><path class="cls-9" d="M139.13,134.09V145.2"/><path class="cls-9" d="M139.13,197.56v4.28"/><path class="cls-3" d="M332.65,41.78v5.74H309.28V41.78a2.09,2.09,0,0,1,0-.25,6.35,6.35,0,0,1,6.35-6.11H326.3a6.35,6.35,0,0,1,6.35,6.36Z"/><rect class="cls-3" x="313.81" y="46.72" width="14.3" height="157.02"/><rect class="cls-3" x="298.99" y="203.67" width="43.94" height="11.82"/><path class="cls-4" d="M342.93,203.67v11.82H320.84a8.47,8.47,0,0,0-8.37-7.11H299v-4.71Z"/><path class="cls-4" d="M332.65,41.78v5.74h-4.54V203.74H321a12.84,12.84,0,0,0-2.21-6.89,13.19,13.19,0,0,0-4.61-4.17l-.32-.17V179.25H321V135a13.23,13.23,0,0,0-2.27-7.44,13,13,0,0,0-4.88-4.34V110.09H321V54.27A12.64,12.64,0,0,0,319,47.52a7,7,0,0,0-.54-.8,11,11,0,0,0-1.3-1.52,12.91,12.91,0,0,0-4.05-2.73,12.57,12.57,0,0,0-3.85-.94,6.35,6.35,0,0,1,6.35-6.11H326.3a6.35,6.35,0,0,1,6.35,6.36Z"/><circle class="cls-5" cx="321.12" cy="18.11" r="18.11"/><path class="cls-6" d="M334.53,25.62a15.42,15.42,0,0,1-4.83,5.23"/><path class="cls-6" d="M325.08,33a15.67,15.67,0,0,1-3.38.5"/><path class="cls-6" d="M308.56,9.27A15,15,0,0,1,310,7.53"/><path class="cls-6" d="M312.87,5.15a15.35,15.35,0,0,1,15.85-.4"/><circle class="cls-7" cx="321.12" cy="18.11" r="12.29" transform="translate(223.62 324.6) rotate(-75.58)"/><circle class="cls-8" cx="321.12" cy="18.11" r="8.07"/><path class="cls-9" d="M316.5,134.09V145.2"/><path class="cls-9" d="M316.5,197.56v4.28"/><rect class="cls-10" x="112.82" y="150.77" width="238.92" height="34.69"/><polygon class="cls-5" points="139.17 150.76 112.82 177.18 112.82 162.99 125.02 150.76 139.17 150.76"/><polygon class="cls-5" points="166.91 150.76 132.29 185.46 118.11 185.46 152.74 150.76 166.91 150.76"/><polygon class="cls-5" points="194.63 150.76 160.01 185.46 145.85 185.46 180.47 150.76 194.63 150.76"/><polygon class="cls-5" points="222.37 150.76 187.75 185.46 173.58 185.46 208.2 150.76 222.37 150.76"/><polygon class="cls-5" points="250.11 150.76 215.49 185.46 201.31 185.46 235.94 150.76 250.11 150.76"/><polygon class="cls-5" points="277.83 150.76 243.21 185.46 229.04 185.46 263.66 150.76 277.83 150.76"/><polygon class="cls-5" points="305.57 150.76 270.95 185.46 256.77 185.46 291.4 150.76 305.57 150.76"/><polygon class="cls-5" points="333.29 150.76 298.67 185.46 284.51 185.46 319.13 150.76 333.29 150.76"/><polygon class="cls-5" points="351.74 150.76 351.74 160.09 326.41 185.46 312.23 185.46 346.86 150.76 351.74 150.76"/><polygon class="cls-5" points="351.74 173.66 351.74 185.46 339.97 185.46 351.74 173.66"/><path class="cls-11" d="M351.74,150.77v34.69H282.12a77.23,77.23,0,0,0-56.65-24.61H112.82V150.77Z"/><rect class="cls-10" x="112.82" y="46.71" width="238.92" height="69.37"/><polygon class="cls-5" points="154.63 46.72 112.82 88.61 112.82 66.3 132.37 46.72 154.63 46.72"/><polygon class="cls-5" points="199.17 46.72 129.94 116.09 112.82 116.09 112.82 110.92 176.89 46.72 199.17 46.72"/><polygon class="cls-5" points="243.69 46.72 174.46 116.09 152.2 116.09 221.43 46.72 243.69 46.72"/><polygon class="cls-5" points="288.23 46.72 219 116.09 196.74 116.09 265.97 46.72 288.23 46.72"/><polygon class="cls-5" points="332.77 46.72 263.54 116.09 241.26 116.09 310.49 46.72 332.77 46.72"/><polygon class="cls-5" points="351.74 50.01 351.74 72.31 308.06 116.09 285.8 116.09 351.74 50.01"/><polygon class="cls-5" points="351.74 96.95 351.74 116.09 332.64 116.09 351.74 96.95"/><path class="cls-12" d="M240.17,104.85H128.58a7,7,0,0,1-7-6.95h0a7,7,0,0,1,7-7H240.17a6.95,6.95,0,0,1,7,7h0A7,7,0,0,1,240.17,104.85Z"/><path class="cls-12" d="M212.51,180.61H128.58a7,7,0,0,1-7-7h0a7,7,0,0,1,7-6.95h83.93a6.95,6.95,0,0,1,7,6.95h0A7,7,0,0,1,212.51,180.61Z"/><path class="cls-11" d="M112.82,46.72V67.65H225.47a77.23,77.23,0,0,1,34.17,7.92l-40.51,40.51h61.45l15.7-15.7a77.47,77.47,0,0,1,8.61,15.71h46.85V46.72Z"/><path class="cls-11" d="M301.42,84.64a6.18,6.18,0,0,1-1.73,3.24l-28.19,28.2H232.28V46.71h35.15L299.69,79A6.3,6.3,0,0,1,301.42,84.64Z"/><path class="cls-8" d="M294.51,81.46a4.69,4.69,0,0,1-1.38,3.33l-61.48,61.49a4.71,4.71,0,0,1-6.65,0L163.52,84.79a4.68,4.68,0,0,1,0-6.64L210.67,31,225,16.66a4.7,4.7,0,0,1,6.65,0l61.48,61.49A4.66,4.66,0,0,1,294.51,81.46Z"/><path class="cls-13" d="M294.51,81.46a4.69,4.69,0,0,1-1.38,3.33l-61.48,61.49a4.71,4.71,0,0,1-6.65,0l-11.72-11.73L238.84,109a35.2,35.2,0,0,0,0-49.8L210.67,31,225,16.66a4.7,4.7,0,0,1,6.65,0l61.48,61.49A4.66,4.66,0,0,1,294.51,81.46Z"/><text class="cls-14" transform="translate(186.36 91.67)">404</text><path class="cls-15" d="M175.75,83.45a1.78,1.78,0,1,1,1.78-1.78A1.78,1.78,0,0,1,175.75,83.45Z"/><path class="cls-4" d="M176.11,83.45a1.78,1.78,0,1,1,1.78-1.78A1.78,1.78,0,0,1,176.11,83.45Z"/><path class="cls-15" d="M280.94,79.89a1.78,1.78,0,1,1-1.79,1.78A1.78,1.78,0,0,1,280.94,79.89Z"/><circle class="cls-4" cx="280.58" cy="81.67" r="1.78"/><path class="cls-16" d="M228.33,141.61a4.94,4.94,0,0,1-3.54-1.47L169.65,85a5,5,0,0,1,0-7.07l55.14-55.14a5.12,5.12,0,0,1,7.07,0L287,77.93A5,5,0,0,1,287,85l-55.15,55.14A4.94,4.94,0,0,1,228.33,141.61Zm0-118.7a3.38,3.38,0,0,0-2.42,1L170.77,79.05a3.42,3.42,0,0,0,0,4.83L225.91,139a3.5,3.5,0,0,0,4.83,0l55.14-55.14a3.42,3.42,0,0,0,0-4.83L230.74,23.91A3.36,3.36,0,0,0,228.33,22.91Z"/><polygon class="cls-5" points="424.72 203.73 367.8 203.73 372.07 187.24 375.67 173.25 378.68 161.64 382.28 147.66 391.04 113.76 401.48 113.76 410.23 147.66 413.84 161.64 416.84 173.25 420.45 187.24 424.72 203.73"/><polygon class="cls-10" points="413.84 161.65 378.68 161.65 382.28 147.66 410.24 147.66 413.84 161.65"/><polygon class="cls-10" points="420.45 187.24 372.07 187.24 375.67 173.26 416.84 173.26 420.45 187.24"/><rect class="cls-17" x="355.52" y="203.67" width="81.48" height="11.82"/><path class="cls-11" d="M437,203.67v11.82H400a8.46,8.46,0,0,0-8.36-7.11H355.52v-4.71Z"/><path class="cls-11" d="M397.92,203.73c12.18-55.16-6.88-90-6.88-90h10.44l8.75,33.9,3.61,14,3,11.61,3.61,14,4.27,16.49Z"/><path class="cls-12" d="M392.41,167.06c-2.84,14.63-7.34,26.05-10.06,25.52s-2.63-12.81.2-27.43,7.34-26.05,10.06-25.52S395.24,152.44,392.41,167.06Z"/><polygon class="cls-5" points="96.76 203.73 39.84 203.73 44.11 187.24 47.71 173.25 50.72 161.64 54.32 147.66 63.08 113.76 73.52 113.76 82.27 147.66 85.88 161.64 88.88 173.25 92.49 187.24 96.76 203.73"/><polygon class="cls-10" points="85.88 161.65 50.72 161.65 54.32 147.66 82.28 147.66 85.88 161.65"/><polygon class="cls-10" points="92.49 187.24 44.11 187.24 47.72 173.26 88.89 173.26 92.49 187.24"/><rect class="cls-17" x="27.56" y="203.67" width="81.48" height="11.82"/><path class="cls-11" d="M109,203.67v11.82h-37a8.47,8.47,0,0,0-8.37-7.11H27.56v-4.71Z"/><path class="cls-11" d="M70,203.73c12.18-55.16-6.88-90-6.88-90H73.52l8.75,33.9,3.61,14,3,11.61,3.61,14,4.27,16.49Z"/><path class="cls-12" d="M64.45,167.06c-2.84,14.63-7.34,26.05-10.06,25.52s-2.63-12.81.21-27.43,7.34-26.05,10.06-25.52S67.28,152.44,64.45,167.06Z"/></g></g></g></svg>