<svg id="Layer_2" data-name="Layer 2" xmlns="http://www.w3.org/2000/svg" viewBox="0 0 1080 1080"><defs><style>.cls-1{fill:#e1ecff;}.cls-2{fill:#ff97c9;}.cls-3{fill:#1c3177;}.cls-4{fill:#f774b9;}.cls-5{fill:none;stroke:#99adf9;stroke-linecap:round;stroke-miterlimit:10;stroke-width:18px;}.cls-6{fill:#fec272;}</style></defs><path class="cls-1" d="M70.89,766C26.29,718.9,74,592.89,145.94,515.83c87.48-93.69,208.08-172.5,441.19-145.7,192.49,22.14,312,119.22,352.65,169.23,64.64,79.48,111.34,191.62,72.41,238-65.33,77.85-335.25-54.61-481.66-57.31S170.48,871,70.89,766Z"/><path class="cls-2" d="M762.61,690.75H254.51L147.64,341.38A22.29,22.29,0,0,1,169,312.56H630.42a22.3,22.3,0,0,1,21.33,15.78Z"/><path class="cls-3" d="M679.4,649.16H314.88a22.52,22.52,0,0,1-21.53-15.92L212.42,368.66a11.22,11.22,0,0,1,10.74-14.51H587.68a22.52,22.52,0,0,1,21.53,15.92l80.93,264.58A11.22,11.22,0,0,1,679.4,649.16Z"/><path class="cls-4" d="M254.51,690.75H937a17.36,17.36,0,0,1,17.36,17.36V731.3A17.36,17.36,0,0,1,937,748.66H271.87a17.36,17.36,0,0,1-17.36-17.36V690.75A0,0,0,0,1,254.51,690.75Z"/><line class="cls-5" x1="337.69" y1="514.4" x2="379.2" y2="468.07"/><line class="cls-5" x1="389" y1="514.4" x2="326.49" y2="468.07"/><line class="cls-5" x1="542.67" y1="514.4" x2="584.18" y2="468.07"/><line class="cls-5" x1="593.98" y1="514.4" x2="531.46" y2="468.07"/><path class="cls-5" d="M440.07,543.68s32.54-17.94,65.59,0"/><path class="cls-6" d="M795.44,489A16.51,16.51,0,0,1,779.35,476c-3.06-13.79-5-24.32-2.3-34.17,3.24-11.68,11.79-18.52,21-25.06,6.21-4.4,10.52-11.08,11-17,.3-3.93-1.08-7.24-4.35-10.4-9.66-9.37-25.3,5.21-26,5.84,0,0-13.14,11.12-22.9-.54s0-23.22,0-23.22a75.89,75.89,0,0,1,21.42-14c18.79-8,36.69-5,50.41,8.25,10.26,9.94,15.33,22.95,14.28,36.63-1.21,15.78-10.48,31.27-24.81,41.41-6.73,4.77-8,6.46-8.31,7-.77,2.44,1.77,13.87,2.73,18.18A16.53,16.53,0,0,1,795.44,489Z"/><circle class="cls-6" cx="803.39" cy="527.09" r="19.13"/></svg>