<?xml version="1.0" standalone="no"?>
<!DOCTYPE svg PUBLIC "-//W3C//DTD SVG 20010904//EN"
 "http://www.w3.org/TR/2001/REC-SVG-20010904/DTD/svg10.dtd">
<svg version="1.0" xmlns="http://www.w3.org/2000/svg"
 width="1000.000000pt" height="1001.000000pt" viewBox="0 0 1000.000000 1001.000000"
 preserveAspectRatio="xMidYMid meet">
<metadata>
Created by potrace 1.16, written by Peter Selinger 2001-2019
</metadata>
<g transform="translate(0.000000,1001.000000) scale(0.100000,-0.100000)"
fill="#000000" stroke="none">
<path d="M4635 9709 c-2137 -170 -3893 -1754 -4274 -3854 -54 -298 -71 -501
-71 -851 0 -704 134 -1330 420 -1956 611 -1336 1830 -2326 3255 -2642 367 -81
635 -109 1035 -109 400 0 668 28 1035 109 1877 416 3334 1974 3624 3876 37
243 51 439 51 722 0 350 -17 553 -71 851 -247 1362 -1092 2556 -2299 3246
-614 351 -1276 553 -1994 609 -148 11 -563 11 -711 -1z m471 -1001 c25 -17 47
-41 50 -52 2 -12 3 -217 2 -456 l-3 -434 -50 -38 c-32 -24 -61 -38 -80 -38
-35 0 -113 49 -132 82 -9 18 -12 122 -13 448 0 479 -5 448 79 502 55 35 82 33
147 -14z m-2009 -1230 c307 -307 313 -314 313 -353 0 -60 -18 -113 -44 -130
-12 -8 -50 -18 -85 -21 l-62 -7 -305 304 c-168 167 -310 312 -316 323 -13 25
8 140 31 160 18 17 78 33 126 35 26 1 67 -36 342 -311z m4212 301 c27 -5 56
-18 64 -27 18 -20 41 -125 33 -150 -3 -9 -145 -156 -315 -326 l-310 -309 -62
7 c-35 3 -73 13 -85 21 -26 17 -44 70 -44 130 0 39 7 47 312 352 222 222 319
313 335 313 12 0 44 -5 72 -11z m-2136 -489 c391 -34 783 -192 1088 -438 102
-82 280 -270 352 -370 171 -238 267 -464 319 -752 16 -89 21 -158 21 -305 1
-433 -84 -682 -387 -1140 -137 -206 -138 -208 -219 -370 -141 -283 -246 -581
-303 -865 -20 -99 -49 -207 -66 -248 -36 -88 -116 -179 -186 -214 l-47 -23
-715 0 -715 0 -57 28 c-122 60 -194 191 -238 431 -70 378 -275 890 -473 1179
-142 209 -189 286 -265 437 -84 167 -118 262 -146 405 -79 405 -27 823 146
1169 317 637 976 1054 1713 1084 33 1 113 -2 178 -8z m-2559 -1796 c28 -11 86
-100 86 -131 0 -32 -52 -118 -80 -133 -11 -6 -188 -10 -449 -10 l-429 0 -30
24 c-16 14 -40 45 -53 70 l-24 46 24 45 c13 25 35 56 49 70 l25 25 433 0 c238
0 439 -3 448 -6z m5678 -19 c14 -14 36 -45 49 -70 l24 -45 -24 -46 c-13 -25
-37 -56 -53 -70 l-30 -24 -429 0 c-261 0 -438 4 -449 10 -28 15 -80 101 -80
133 0 29 58 120 83 130 7 3 208 6 448 6 l436 1 25 -25z m-4947 -1695 c41 -13
55 -39 62 -116 l6 -65 -309 -311 -309 -310 -67 5 c-37 3 -76 10 -87 16 -21 12
-36 51 -47 119 l-7 44 321 320 320 321 44 -7 c23 -4 57 -11 73 -16z m3748
-299 l319 -318 -7 -49 c-13 -86 -28 -111 -75 -124 -23 -6 -60 -12 -82 -12 -40
0 -45 4 -345 303 -167 167 -306 314 -309 327 -9 32 5 124 21 146 14 19 89 44
135 45 19 1 91 -66 343 -318z m-1424 -1132 c28 -33 51 -68 51 -76 0 -14 -80
-118 -105 -135 -5 -4 -281 -8 -612 -8 l-602 0 -56 69 c-30 37 -55 71 -55 75 0
4 24 36 53 72 l52 64 612 0 611 0 51 -61z m-95 -381 c25 -29 46 -58 46 -64 0
-16 -77 -111 -96 -118 -9 -3 -243 -6 -522 -6 l-506 0 -48 50 c-26 27 -48 59
-48 71 0 11 19 43 42 70 l41 49 523 0 522 0 46 -52z m-44 -348 c0 -29 -24 -84
-55 -125 -39 -50 -127 -105 -225 -138 -113 -40 -285 -49 -406 -22 -195 43
-331 146 -359 273 l-7 32 526 0 c522 0 526 0 526 -20z"/>
<path d="M4890 6979 c-310 -28 -629 -144 -867 -315 -110 -79 -281 -252 -344
-349 -213 -325 -297 -600 -286 -929 6 -185 25 -292 81 -461 71 -212 136 -339
314 -615 181 -282 424 -826 506 -1130 47 -178 77 -239 127 -265 l29 -16 0 753
-1 753 -77 50 c-91 59 -240 204 -304 295 -150 214 -217 451 -205 720 13 288
127 535 336 732 90 85 226 178 261 178 7 0 10 -137 10 -455 -1 -428 0 -457 18
-498 24 -53 87 -116 147 -146 43 -21 52 -22 396 -21 l352 0 50 27 c62 34 130
109 145 161 9 28 12 171 12 491 l0 451 43 -21 c105 -53 242 -170 332 -282 298
-373 312 -920 33 -1325 -69 -99 -203 -233 -303 -301 -44 -30 -83 -60 -87 -65
-13 -19 -5 -1489 8 -1493 18 -6 71 53 93 103 11 25 34 96 50 159 75 286 335
877 491 1114 224 341 333 579 391 856 31 144 33 422 6 555 -43 204 -136 423
-259 610 -125 190 -354 389 -573 498 -285 140 -631 209 -925 181z"/>
</g>
</svg>
